<svg xmlns="http://www.w3.org/2000/svg" xmlns:xlink="http://www.w3.org/1999/xlink" zoomAndPan="magnify" preserveAspectRatio="xMidYMid meet" version="1.0" viewBox="112.5 114.11 152.85 123.05"><defs><g/><clipPath id="382c2cf7a9"><path d="M 162 187 L 262.5 187 L 262.5 215.363281 L 162 215.363281 Z M 162 187 " clip-rule="nonzero"/></clipPath><clipPath id="bbc25b4a8a"><path d="M 199 114.113281 L 232 114.113281 L 232 158 L 199 158 Z M 199 114.113281 " clip-rule="nonzero"/></clipPath><clipPath id="76297b3684"><path d="M 112.5 139 L 183 139 L 183 197 L 112.5 197 Z M 112.5 139 " clip-rule="nonzero"/></clipPath><clipPath id="94a5d451a1"><path d="M 190 114.113281 L 224 114.113281 L 224 187 L 190 187 Z M 190 114.113281 " clip-rule="nonzero"/></clipPath></defs><g clip-path="url(#382c2cf7a9)"><path fill="#000000" d="M 234.269531 201.015625 C 234.269531 193.300781 240.519531 187.019531 248.265625 187.019531 C 255.980469 187.019531 262.261719 193.269531 262.261719 201.015625 C 262.261719 208.730469 256.011719 215.011719 248.265625 215.011719 C 240.550781 215.011719 234.269531 208.730469 234.269531 201.015625 Z M 176.585938 215.011719 C 184.300781 215.011719 190.582031 208.761719 190.582031 201.015625 C 190.582031 193.300781 184.332031 187.019531 176.585938 187.019531 C 168.839844 187.019531 162.589844 193.269531 162.589844 201.015625 C 162.589844 208.730469 168.871094 215.011719 176.585938 215.011719 Z M 176.585938 215.011719 " fill-opacity="1" fill-rule="nonzero"/></g><path fill="#545454" d="M 219.648438 186.035156 C 219.648438 186.035156 218.332031 189.472656 221.800781 189.472656 C 229.636719 189.472656 229.574219 194.050781 229.574219 194.050781 L 212.679688 194.050781 L 214.773438 186.035156 Z M 219.648438 186.035156 " fill-opacity="1" fill-rule="nonzero"/><path fill="#545454" d="M 230.621094 203.796875 C 227.632812 195.960938 230.652344 186.929688 238.128906 182.566406 C 245.605469 178.199219 254.964844 180.023438 260.316406 186.453125 Z M 230.621094 203.796875 " fill-opacity="1" fill-rule="nonzero"/><path fill="#000000" d="M 202.363281 176.703125 C 195.992188 188.007812 204.335938 194.050781 204.335938 194.050781 L 222.011719 194.050781 C 224.222656 193.210938 229.128906 188.246094 232.328125 180.890625 C 235.527344 173.535156 224.460938 150.449219 224.460938 150.449219 C 229.128906 144.558594 241.296875 147.25 241.296875 147.25 L 241.296875 159.777344 L 234.269531 157.804688 L 244.347656 178.4375 L 225.6875 201.015625 L 160.375 201.015625 L 173.894531 176.703125 Z M 202.363281 176.703125 " fill-opacity="1" fill-rule="nonzero"/><path fill="#ff914d" d="M 241.296875 201.015625 C 241.296875 197.160156 244.410156 194.050781 248.265625 194.050781 C 252.125 194.050781 255.234375 197.160156 255.234375 201.015625 C 255.234375 204.875 252.125 207.984375 248.265625 207.984375 C 244.410156 207.984375 241.296875 204.875 241.296875 201.015625 Z M 176.585938 207.984375 C 180.441406 207.984375 183.550781 204.875 183.550781 201.015625 C 183.550781 197.160156 180.441406 194.050781 176.585938 194.050781 C 172.726562 194.050781 169.617188 197.160156 169.617188 201.015625 C 169.617188 204.875 172.726562 207.984375 176.585938 207.984375 Z M 176.585938 207.984375 " fill-opacity="1" fill-rule="nonzero"/><path fill="#545454" d="M 207.027344 176.703125 L 167.492188 176.703125 L 167.492188 169.109375 L 207.027344 169.109375 Z M 178.796875 180.53125 C 168.152344 180.53125 156.9375 189.710938 156.9375 201.015625 L 195.484375 201.015625 C 195.484375 187.140625 192.914062 180.53125 178.796875 180.53125 Z M 217.523438 149.222656 C 214.652344 147.757812 212.320312 133.253906 203.796875 133.761719 C 195.246094 134.238281 191.566406 151.914062 190.582031 156.578125 L 203.828125 157.804688 C 204.816406 152.898438 207.746094 146.621094 207.746094 146.621094 C 207.746094 146.621094 209.449219 155.082031 213.757812 155.832031 C 216.269531 156.25 221.023438 156.847656 224.582031 157.265625 L 225.449219 150.925781 C 222.546875 150.597656 219.078125 150 217.523438 149.222656 Z M 217.523438 149.222656 " fill-opacity="1" fill-rule="nonzero"/><g clip-path="url(#bbc25b4a8a)"><path fill="#ff914d" d="M 216.359375 122.695312 C 216.359375 127.453125 212.5 131.277344 207.773438 131.277344 C 203.019531 131.277344 199.191406 127.421875 199.191406 122.695312 C 199.191406 117.972656 203.019531 114.113281 207.773438 114.113281 C 212.5 114.113281 216.359375 117.972656 216.359375 122.695312 Z M 230.113281 151.433594 C 230.113281 151.433594 228.019531 151.285156 225.480469 150.957031 L 224.613281 157.296875 C 227.183594 157.59375 229.128906 157.804688 229.128906 157.804688 C 231.578125 155.589844 231.9375 155.113281 230.113281 151.433594 Z M 230.113281 151.433594 " fill-opacity="1" fill-rule="nonzero"/></g><g clip-path="url(#76297b3684)"><path fill="#ff914d" d="M 182.714844 169.109375 L 151.792969 169.109375 L 151.792969 139.144531 L 182.714844 139.144531 Z M 163.367188 178.4375 C 163.367188 178.019531 163.007812 177.660156 162.589844 177.660156 L 138.785156 177.660156 C 138.367188 177.660156 138.007812 178.019531 138.007812 178.4375 C 138.007812 178.855469 138.367188 179.214844 138.785156 179.214844 L 162.589844 179.214844 C 163.039062 179.214844 163.367188 178.855469 163.367188 178.4375 Z M 155.53125 184.808594 C 155.53125 184.390625 155.171875 184.03125 154.753906 184.03125 L 118.660156 184.03125 C 118.242188 184.03125 117.882812 184.390625 117.882812 184.808594 C 117.882812 185.226562 118.242188 185.585938 118.660156 185.585938 L 154.753906 185.585938 C 155.171875 185.585938 155.53125 185.257812 155.53125 184.808594 Z M 163.367188 195.875 C 163.367188 195.453125 163.007812 195.09375 162.589844 195.09375 L 132.894531 195.09375 C 132.476562 195.09375 132.117188 195.453125 132.117188 195.875 C 132.117188 196.292969 132.476562 196.652344 132.894531 196.652344 L 162.589844 196.652344 C 163.039062 196.652344 163.367188 196.292969 163.367188 195.875 Z M 170.394531 191.148438 C 170.394531 190.730469 170.035156 190.371094 169.617188 190.371094 L 142.941406 190.371094 C 142.523438 190.371094 142.164062 190.730469 142.164062 191.148438 C 142.164062 191.566406 142.523438 191.925781 142.941406 191.925781 L 169.617188 191.925781 C 170.066406 191.925781 170.394531 191.566406 170.394531 191.148438 Z M 148.683594 161.992188 C 148.683594 161.574219 148.324219 161.214844 147.90625 161.214844 L 113.515625 161.214844 C 113.097656 161.214844 112.738281 161.574219 112.738281 161.992188 C 112.738281 162.410156 113.097656 162.769531 113.515625 162.769531 L 147.875 162.769531 C 148.324219 162.769531 148.683594 162.410156 148.683594 161.992188 Z M 147.277344 155.113281 C 147.277344 154.695312 146.917969 154.335938 146.5 154.335938 L 123.804688 154.335938 C 123.382812 154.335938 123.027344 154.695312 123.027344 155.113281 C 123.027344 155.53125 123.382812 155.890625 123.804688 155.890625 L 146.5 155.890625 C 146.917969 155.890625 147.277344 155.53125 147.277344 155.113281 Z M 147.277344 155.113281 " fill-opacity="1" fill-rule="nonzero"/></g><g clip-path="url(#94a5d451a1)"><path fill="#000000" d="M 221.742188 119.464844 L 199.191406 123.113281 C 199.191406 122.964844 199.164062 122.847656 199.164062 122.695312 C 199.164062 117.972656 203.019531 114.113281 207.773438 114.113281 C 211.394531 114.113281 214.472656 116.355469 215.730469 119.496094 L 221.589844 118.570312 Z M 190.582031 156.578125 C 189.59375 161.242188 190.820312 169.109375 195.484375 169.109375 L 207.027344 169.109375 C 213.90625 169.109375 215.878906 175.746094 212.917969 186.035156 L 220.515625 186.035156 C 224.191406 171.800781 225.417969 167.613281 220.515625 165.160156 C 215.609375 162.707031 202.839844 162.707031 203.828125 157.804688 Z M 190.582031 156.578125 " fill-opacity="1" fill-rule="nonzero"/></g><g fill="#545454" fill-opacity="1"><g transform="translate(115.968152, 236.836976)"><g><path d="M 20.34375 -20.25 L 13.40625 -20.25 L 10.375 -13.6875 L 7.375 -20.25 L 0.453125 -20.25 L 7.09375 -8.265625 L 7.09375 0 L 13.6875 0 L 13.6875 -8.265625 Z M 20.34375 -20.25 "/></g></g></g><g fill="#545454" fill-opacity="1"><g transform="translate(136.540474, 236.836976)"><g><path d="M 18.71875 -16.203125 L 12.109375 -16.203125 L 12.109375 -8.1875 C 11.703125 -6.234375 10.890625 -5.1875 9.765625 -5.1875 C 8.421875 -5.1875 7.65625 -6.6875 7.65625 -9.3125 L 7.65625 -16.203125 L 1.09375 -16.203125 L 1.09375 -7.046875 C 1.09375 -2.34375 3.359375 0.328125 7.375 0.328125 C 9.5625 0.28125 11.1875 -0.734375 12.109375 -2.59375 L 12.109375 0 L 18.71875 0 Z M 18.71875 -16.203125 "/></g></g></g><g fill="#545454" fill-opacity="1"><g transform="translate(156.545844, 236.836976)"><g><path d="M 23.578125 -16.53125 C 21.0625 -16.484375 19.28125 -15.109375 18.4375 -12.6875 C 17.546875 -15.15625 15.515625 -16.53125 12.640625 -16.53125 C 10.5 -16.484375 8.875 -15.515625 7.90625 -13.65625 L 7.90625 -16.203125 L 1.34375 -16.203125 L 1.34375 0 L 7.90625 0 L 7.90625 -8.0625 C 8.3125 -10 9.15625 -11.0625 10.296875 -11.0625 C 11.625 -11.0625 12.359375 -9.5625 12.359375 -6.890625 L 12.359375 0 L 18.953125 0 L 18.953125 -8.390625 C 19.359375 -10.09375 20.171875 -11.0625 21.1875 -11.0625 C 22.53125 -11.0625 23.296875 -9.5625 23.296875 -6.890625 L 23.296875 0 L 29.859375 0 L 29.859375 -9.203125 C 29.859375 -13.859375 27.59375 -16.53125 23.578125 -16.53125 Z M 23.578125 -16.53125 "/></g></g></g><g fill="#ff914d" fill-opacity="1"><g transform="translate(187.511711, 236.836976)"><g><path d="M 9.4375 -20.25 L 1.34375 -20.25 L 1.34375 0 L 9.4375 0 C 15.515625 0 18.953125 -3.640625 18.953125 -10.125 C 18.953125 -16.609375 15.515625 -20.25 9.4375 -20.25 Z M 9.84375 -5.671875 L 7.90625 -5.671875 L 7.90625 -14.578125 L 9.84375 -14.578125 C 11.5 -14.578125 12.484375 -13 12.484375 -10.125 C 12.484375 -7.296875 11.5 -5.671875 9.84375 -5.671875 Z M 9.84375 -5.671875 "/></g></g></g><g fill="#ff914d" fill-opacity="1"><g transform="translate(207.476592, 236.836976)"><g><path d="M 18.59375 -16.203125 L 11.984375 -16.203125 L 11.984375 -13.984375 C 11.0625 -15.640625 9.640625 -16.53125 7.859375 -16.53125 C 3.4375 -16.53125 0.96875 -13.484375 0.96875 -8.109375 C 0.96875 -2.75 3.4375 0.328125 7.859375 0.328125 C 9.640625 0.328125 11.0625 -0.609375 11.984375 -2.265625 L 11.984375 0 L 18.59375 0 Z M 9.765625 -4.984375 C 8.265625 -4.984375 7.453125 -6.125 7.453125 -8.109375 C 7.453125 -10.125 8.265625 -11.265625 9.765625 -11.265625 C 11.21875 -11.265625 11.984375 -10.125 11.984375 -8.109375 C 11.984375 -6.125 11.21875 -4.984375 9.765625 -4.984375 Z M 9.765625 -4.984375 "/></g></g></g><g fill="#ff914d" fill-opacity="1"><g transform="translate(227.360471, 236.836976)"><g><path d="M 4.9375 -5.953125 C 6.3125 -4.9375 7.984375 -4.421875 9.515625 -4.421875 C 11.5 -4.421875 12.59375 -4.734375 12.59375 -5.265625 C 12.59375 -7.046875 0.734375 -3.890625 0.734375 -11.265625 C 0.734375 -14.625 3.8125 -16.53125 9.3125 -16.53125 C 12.59375 -16.53125 15.640625 -15.390625 17.75 -13.40625 L 14.140625 -10.25 C 12.71875 -11.296875 11.0625 -11.875 9.515625 -11.875 C 7.578125 -11.875 6.484375 -11.5 6.484375 -10.9375 C 6.484375 -9.40625 18.359375 -12.359375 18.359375 -4.984375 C 18.359375 -1.578125 15.234375 0.328125 9.71875 0.28125 C 6.8125 0.28125 3.765625 -0.84375 1.34375 -2.796875 Z M 4.9375 -5.953125 "/></g></g></g><g fill="#ff914d" fill-opacity="1"><g transform="translate(246.393918, 236.836976)"><g><path d="M 12.640625 -16.53125 C 10.5 -16.484375 8.875 -15.515625 7.90625 -13.65625 L 7.90625 -20.25 L 1.34375 -20.25 L 1.34375 0 L 7.90625 0 L 7.90625 -8.015625 C 8.3125 -9.96875 9.15625 -11.0625 10.296875 -11.0625 C 11.625 -11.0625 12.359375 -9.5625 12.359375 -6.890625 L 12.359375 0 L 18.953125 0 L 18.953125 -9.203125 C 18.953125 -13.859375 16.6875 -16.53125 12.640625 -16.53125 Z M 12.640625 -16.53125 "/></g></g></g></svg>