<svg xmlns="http://www.w3.org/2000/svg" xmlns:xlink="http://www.w3.org/1999/xlink" zoomAndPan="magnify" preserveAspectRatio="xMidYMid meet" version="1.0" viewBox="112.5 126 150 123.09"><defs><g/><clipPath id="9869fa66c5"><path d="M 112.5 126 L 262.5 126 L 262.5 248.90625 L 112.5 248.90625 Z M 112.5 126 " clip-rule="nonzero"/></clipPath></defs><g clip-path="url(#9869fa66c5)"><path fill="#ff914d" d="M 259.683594 164.992188 L 184.59375 164.992188 L 146.527344 126.925781 C 145.507812 125.90625 143.796875 125.96875 142.699219 127.0625 L 137.992188 131.773438 C 136.898438 132.867188 136.835938 134.578125 137.855469 135.597656 L 167.253906 164.996094 L 115.3125 164.996094 C 113.765625 164.996094 112.507812 166.25 112.507812 167.800781 L 112.507812 178.664062 C 112.507812 180.210938 113.765625 181.464844 115.3125 181.464844 L 123.191406 181.464844 L 130.90625 235.78125 C 130.90625 235.78125 133.007812 249.09375 140.71875 249.09375 L 234.28125 249.09375 C 241.992188 249.09375 244.09375 235.78125 244.09375 235.78125 L 251.804688 181.464844 L 259.6875 181.464844 C 261.234375 181.464844 262.488281 180.210938 262.488281 178.664062 L 262.488281 167.800781 C 262.484375 166.25 261.226562 164.996094 259.679688 164.996094 Z M 155.785156 230.523438 C 155.785156 231.875 154.6875 232.972656 153.335938 232.972656 L 148.125 232.972656 C 146.773438 232.972656 145.675781 231.875 145.675781 230.523438 L 145.675781 203.253906 C 145.675781 201.898438 146.773438 200.800781 148.125 200.800781 L 153.335938 200.800781 C 154.6875 200.800781 155.785156 201.898438 155.785156 203.253906 Z M 180.296875 230.523438 C 180.296875 231.875 179.199219 232.972656 177.847656 232.972656 L 172.636719 232.972656 C 171.285156 232.972656 170.1875 231.875 170.1875 230.523438 L 170.1875 203.253906 C 170.1875 201.898438 171.285156 200.800781 172.636719 200.800781 L 177.847656 200.800781 C 179.199219 200.800781 180.296875 201.898438 180.296875 203.253906 Z M 204.8125 230.523438 C 204.8125 231.875 203.714844 232.972656 202.359375 232.972656 L 197.152344 232.972656 C 195.796875 232.972656 194.699219 231.875 194.699219 230.523438 L 194.699219 203.253906 C 194.699219 201.898438 195.796875 200.800781 197.152344 200.800781 L 202.359375 200.800781 C 203.714844 200.800781 204.8125 201.898438 204.8125 203.253906 Z M 229.324219 230.523438 C 229.324219 231.875 228.226562 232.972656 226.871094 232.972656 L 221.664062 232.972656 C 220.308594 232.972656 219.214844 231.875 219.214844 230.523438 L 219.214844 203.253906 C 219.214844 201.898438 220.308594 200.800781 221.664062 200.800781 L 226.871094 200.800781 C 228.226562 200.800781 229.324219 201.898438 229.324219 203.253906 Z M 179.667969 170.96875 C 179.667969 169.789062 180.625 168.828125 181.808594 168.828125 C 182.992188 168.828125 183.949219 169.789062 183.949219 170.96875 C 183.949219 172.152344 182.992188 173.113281 181.808594 173.113281 C 180.625 173.113281 179.667969 172.152344 179.667969 170.96875 Z M 179.667969 170.96875 " fill-opacity="1" fill-rule="nonzero"/></g><g fill="#ff914d" fill-opacity="1"><g transform="translate(185.392992, 193.126408)"><g><path d="M 2.109375 0.078125 C 1.804688 0.078125 1.566406 -0.00390625 1.390625 -0.171875 C 1.222656 -0.335938 1.140625 -0.5625 1.140625 -0.84375 C 1.140625 -1.113281 1.222656 -1.332031 1.390625 -1.5 C 1.566406 -1.675781 1.804688 -1.765625 2.109375 -1.765625 C 2.410156 -1.765625 2.644531 -1.679688 2.8125 -1.515625 C 2.988281 -1.347656 3.078125 -1.128906 3.078125 -0.859375 C 3.078125 -0.578125 2.988281 -0.347656 2.8125 -0.171875 C 2.632812 -0.00390625 2.398438 0.078125 2.109375 0.078125 Z M 2.109375 0.078125 "/></g></g></g></svg>